<svg xmlns="http://www.w3.org/2000/svg" width="64.311" height="61.925" viewBox="0 0 64.311 61.925">
  <g id="Сгруппировать_47" data-name="Сгруппировать 47" transform="translate(1878.452 -2411.006)">
    <path id="Контур_29" data-name="Контур 29" d="M-1830.831,2460.192h-5.011v-.434a1.559,1.559,0,0,1,.587-1.069c1.646-1.574,5.127-2.872,5.127-5.995,0-2.235-1.9-3.588-4.034-3.588-1.972,0-3.836,1.241-3.836,3.306q0,1.258,1.044,1.258c.634,0,1.2-.349,1.2-.888a1.56,1.56,0,0,1,.452-1.221,1.839,1.839,0,0,1,2.411.082c1.16,1.337-.211,2.827-1.616,3.876-.476.41-3.583,2.091-3.583,4.23v1.751c0,.444.6.741,1,.741h6.27a.619.619,0,0,0,.5-.315C-1829.816,2461.218-1830.232,2460.192-1830.831,2460.192Z" fill="#0070bf"/>
    <path id="Контур_30" data-name="Контур 30" d="M-1822.6,2457.21v-1.978c0-1.037-2.336-1.033-2.336,0v1.978h-2.1l3.451-6.9c.478-.959-1.484-1.829-2.067-.6l-4.258,8.3a.789.789,0,0,0,.664,1.242h4.313v2.213c0,1.01,2.336,1.037,2.336,0v-2.213h.845c.581,0,1-1.031.538-1.744C-1821.517,2457.049-1821.914,2457.265-1822.6,2457.21Z" fill="#0070bf"/>
    <path id="Контур_31" data-name="Контур 31" d="M-1848.672,2435.3v-11.412a1.256,1.256,0,0,0-1.256-1.256,1.256,1.256,0,0,0-1.256,1.256V2435.3a4.433,4.433,0,0,0-2.977,2.976h-6.079a1.257,1.257,0,0,0-1.256,1.256,1.256,1.256,0,0,0,1.256,1.256h6.079a4.423,4.423,0,0,0,4.233,3.16,4.421,4.421,0,0,0,4.416-4.416A4.422,4.422,0,0,0-1848.672,2435.3Zm-1.256,6.136a1.906,1.906,0,0,1-1.9-1.9,1.905,1.905,0,0,1,1.9-1.9,1.906,1.906,0,0,1,1.9,1.9A1.907,1.907,0,0,1-1849.928,2441.434Z" fill="#0070bf"/>
    <path id="Контур_32" data-name="Контур 32" d="M-1837.208,2444.741a1.259,1.259,0,0,0-1.5-1.233,1.256,1.256,0,0,0-.986,1.478,1.255,1.255,0,0,0,1.476.986A1.256,1.256,0,0,0-1837.208,2444.741Z" fill="#0070bf"/>
    <path id="Контур_33" data-name="Контур 33" d="M-1814.667,2452.863a15.886,15.886,0,0,0-7-9.507,28.7,28.7,0,0,0,.259-3.826,28.508,28.508,0,0,0-28.524-28.524,28.509,28.509,0,0,0-28.524,28.524,28.526,28.526,0,0,0,35.936,27.548,16.019,16.019,0,0,0,16.43,5.328A16.024,16.024,0,0,0-1814.667,2452.863Zm-12.057,17.113a13.515,13.515,0,0,1-14.483-5.32l-.043-.062a13.489,13.489,0,0,1-.305-14.877c.588-.93.841-1.041.868-1.586a1.257,1.257,0,0,0-2.26-.817,15.937,15.937,0,0,0-3.07,11.7,19.9,19.9,0,0,1-23.783-19.486,19.894,19.894,0,0,1,19.872-19.871,19.657,19.657,0,0,1,13.051,4.885l-1.427-.118a1.256,1.256,0,0,0-1.354,1.148,1.255,1.255,0,0,0,1.148,1.356c4.548.373,4.3.358,4.4.358a1.256,1.256,0,0,0,1.249-1.143l.388-4.292a1.255,1.255,0,0,0-1.137-1.364,1.255,1.255,0,0,0-1.364,1.138l-.1,1.155a22.283,22.283,0,0,0-14.849-5.635,22.408,22.408,0,0,0-22.383,22.383,22.406,22.406,0,0,0,26.817,21.941,16.321,16.321,0,0,0,1.449,3.4,26.045,26.045,0,0,1-31.895-25.343,26.041,26.041,0,0,1,26.012-26.011,26.041,26.041,0,0,1,26.012,26.011c0,.864-.044,1.732-.13,2.6a15.885,15.885,0,0,0-3.556-1.012c.036-.527.057-1.057.057-1.585a22.2,22.2,0,0,0-1.966-9.184,1.256,1.256,0,0,0-1.66-.63,1.257,1.257,0,0,0-.63,1.662,19.715,19.715,0,0,1,1.744,8.152c0,.461-.016.924-.048,1.385a16.1,16.1,0,0,0-4.1.529,1.255,1.255,0,0,0-.9,1.534c.4,1.507,1.781.752,3.255.562a13.485,13.485,0,0,1,14.754,9.96A13.508,13.508,0,0,1-1826.724,2469.976Z" fill="#0070bf"/>
  </g>
</svg>
