<svg xmlns="http://www.w3.org/2000/svg" width="64.437" height="64.437" viewBox="0 0 64.437 64.437">
  <g id="Сгруппировать_66" data-name="Сгруппировать 66" transform="translate(1513.479 -2409.75)">
    <g id="Сгруппировать_49" data-name="Сгруппировать 49">
      <g id="Сгруппировать_48" data-name="Сгруппировать 48">
        <path id="Контур_34" data-name="Контур 34" d="M-1499.656,2472.2l-1.9-2.668a1.257,1.257,0,0,0-1.754-.3,1.259,1.259,0,0,0-.3,1.755l1.9,2.669a1.258,1.258,0,0,0,1.027.53,1.257,1.257,0,0,0,.728-.233A1.259,1.259,0,0,0-1499.656,2472.2Z" fill="#0070bf"/>
      </g>
    </g>
    <g id="Сгруппировать_51" data-name="Сгруппировать 51">
      <g id="Сгруппировать_50" data-name="Сгруппировать 50">
        <path id="Контур_35" data-name="Контур 35" d="M-1485.136,2472.67l-2.062-9.828a18.536,18.536,0,0,0-7.838-11.636l-4.4-2.96a4.428,4.428,0,0,0-5.614.573v-15.165a4.189,4.189,0,0,0-3.3-4.113,4.192,4.192,0,0,0-3.549.827,4.194,4.194,0,0,0-1.577,3.286v19.514a12.188,12.188,0,0,0,2.263,7.094l2.244,3.162a1.255,1.255,0,0,0,1.027.53,1.253,1.253,0,0,0,.728-.232,1.259,1.259,0,0,0,.3-1.755l-2.244-3.162a9.685,9.685,0,0,1-1.8-5.637v-19.514a1.69,1.69,0,0,1,.635-1.323,1.686,1.686,0,0,1,1.429-.332,1.685,1.685,0,0,1,1.328,1.655v15.482a8.8,8.8,0,0,0,2.268,5.9c.063.075.128.15.2.222.835.886,1.818,1.929,2.744,2.913l1.3,1.379.013.012c1.109,1.179,1.926,2.05,1.943,2.068a1.26,1.26,0,0,0,1.779.056,1.258,1.258,0,0,0,.056-1.779c-.023-.025-1.5-1.594-3.179-3.382l-2.885-3.071-.022-.024a2.125,2.125,0,0,1,.041-2.783,1.9,1.9,0,0,1,2.478-.316l4.4,2.96a16.032,16.032,0,0,1,6.78,10.064l2.062,9.828a1.258,1.258,0,0,0,1.23,1,1.278,1.278,0,0,0,.26-.027A1.258,1.258,0,0,0-1485.136,2472.67Z" fill="#0070bf"/>
      </g>
    </g>
    <g id="Сгруппировать_53" data-name="Сгруппировать 53">
      <g id="Сгруппировать_52" data-name="Сгруппировать 52">
        <path id="Контур_36" data-name="Контур 36" d="M-1504.154,2465.862l-.009-.011a1.257,1.257,0,0,0-1.755-.293,1.258,1.258,0,0,0-.294,1.755l.009.011a1.253,1.253,0,0,0,1.025.528,1.255,1.255,0,0,0,.73-.234A1.259,1.259,0,0,0-1504.154,2465.862Z" fill="#0070bf"/>
      </g>
    </g>
    <g id="Сгруппировать_55" data-name="Сгруппировать 55">
      <g id="Сгруппировать_54" data-name="Сгруппировать 54">
        <path id="Контур_37" data-name="Контур 37" d="M-1450.618,2430.368a4.2,4.2,0,0,0-3.55-.827,4.189,4.189,0,0,0-3.3,4.113v15.165a4.429,4.429,0,0,0-5.614-.573l-4.4,2.96a18.537,18.537,0,0,0-7.839,11.636l-2.062,9.828a1.258,1.258,0,0,0,.973,1.49,1.285,1.285,0,0,0,.26.027,1.26,1.26,0,0,0,1.231-1l2.061-9.827a16.036,16.036,0,0,1,6.78-10.064l4.4-2.96a1.9,1.9,0,0,1,2.478.316,2.124,2.124,0,0,1,.044,2.78l-.024.027s-6.042,6.428-6.064,6.453a1.259,1.259,0,0,0,.055,1.779,1.26,1.26,0,0,0,1.779-.056c.017-.018,5.16-5.486,6-6.372.068-.072.132-.146.195-.222a8.791,8.791,0,0,0,2.268-5.9v-15.482a1.684,1.684,0,0,1,1.329-1.655,1.69,1.69,0,0,1,1.429.332,1.689,1.689,0,0,1,.634,1.323v19.514a9.685,9.685,0,0,1-1.8,5.637l-9.508,13.4a1.258,1.258,0,0,0,.3,1.754,1.252,1.252,0,0,0,.727.233,1.261,1.261,0,0,0,1.028-.53l9.508-13.394a12.19,12.19,0,0,0,2.262-7.095v-19.514A4.2,4.2,0,0,0-1450.618,2430.368Z" fill="#0070bf"/>
      </g>
    </g>
    <g id="Сгруппировать_57" data-name="Сгруппировать 57">
      <g id="Сгруппировать_56" data-name="Сгруппировать 56">
        <path id="Контур_38" data-name="Контур 38" d="M-1465.32,2433.871l-2.239-.535v-.4a5.631,5.631,0,0,0,2.409-4.616v-2.91a5.639,5.639,0,0,0-5.632-5.633,5.607,5.607,0,0,0-3.655,1.352,7.361,7.361,0,0,0-6.808-4.582,7.361,7.361,0,0,0-6.811,4.592,5.606,5.606,0,0,0-3.667-1.362,5.638,5.638,0,0,0-5.632,5.632v2.911a5.628,5.628,0,0,0,2.409,4.615v.4l-2.239.535a5.9,5.9,0,0,0-4.54,5.753v2.35a1.258,1.258,0,0,0,1.258,1.259h5.783c-.009.152-.015.306-.015.46v4.526a1.259,1.259,0,0,0,1.259,1.258h7.565a1.258,1.258,0,0,0,1.258-1.258,1.259,1.259,0,0,0-1.258-1.259h-1.3v-2.6a1.258,1.258,0,0,0-1.258-1.259,1.259,1.259,0,0,0-1.259,1.259v2.6h-2.489v-3.267a5.212,5.212,0,0,1,4.009-5.084l3.454-.827,2.311,5.258a1.258,1.258,0,0,0,1.152.752h0a1.257,1.257,0,0,0,1.152-.752l2.309-5.25,3.443.822a5.212,5.212,0,0,1,4.013,5.084v3.264h-2.489v-2.6a1.259,1.259,0,0,0-1.259-1.259,1.258,1.258,0,0,0-1.258,1.259v2.6h-1.427a1.258,1.258,0,0,0-1.258,1.258,1.259,1.259,0,0,0,1.258,1.259h7.691a1.259,1.259,0,0,0,1.259-1.259V2443.7c0-.156-.007-.31-.016-.464h5.8a1.258,1.258,0,0,0,1.258-1.259v-2.35A5.9,5.9,0,0,0-1465.32,2433.871Zm-5.462-11.578a3.119,3.119,0,0,1,3.108,2.91h-1.749a9.164,9.164,0,0,1-4.22-1.029A3.12,3.12,0,0,1-1470.782,2422.293Zm-3.116,5.842c0-.061.005-.122.005-.184v-1.12a11.7,11.7,0,0,0,4.47.889h1.756v.6a3.119,3.119,0,0,1-3.115,3.116,3.12,3.12,0,0,1-3.116-3.116Zm-12.181-4.238h0a4.84,4.84,0,0,1,4.834-4.834,4.843,4.843,0,0,1,4.774,4.066l-2.119-1.245a1.259,1.259,0,0,0-1.6.277,5.422,5.422,0,0,1-4.166,1.944h-1.721v-.208Zm-5.643-1.6a3.121,3.121,0,0,1,2.86,1.881,9.164,9.164,0,0,1-4.22,1.029h-1.749A3.119,3.119,0,0,1-1491.722,2422.293Zm-3.116,5.427h1.756a11.7,11.7,0,0,0,4.475-.891v1.49a3.119,3.119,0,0,1-3.115,3.116,3.12,3.12,0,0,1-3.116-3.116v-.6Zm6.079,8.443a7.716,7.716,0,0,0-5.348,4.553h-5.1v-1.092a3.386,3.386,0,0,1,2.608-3.3l3.2-.766a1.257,1.257,0,0,0,.966-1.224v-.423a5.673,5.673,0,0,0,.707.046,5.783,5.783,0,0,0,.7-.045v.359c0,.019,0,.037,0,.056a1.26,1.26,0,0,0,.576,1.059,1.24,1.24,0,0,0,.447.179l1.877.45Zm3.51-1.954a5.845,5.845,0,0,0-1.007-.34l-2.249-.539v-.392a5.67,5.67,0,0,0,1.091-1,7.409,7.409,0,0,0,2.165,2.17v.1Zm5.466,1.849-1.472,3.35-1.476-3.359v-.9a7.341,7.341,0,0,0,1.486.152,7.335,7.335,0,0,0,1.462-.147Zm-1.462-3.273a4.839,4.839,0,0,1-4.834-4.834v-1.329h1.721a7.928,7.928,0,0,0,5.347-2.066l2.6,1.525v2.055A4.839,4.839,0,0,1-1481.245,2432.785Zm3.979,1.428v-.085a7.413,7.413,0,0,0,2.184-2.176,5.659,5.659,0,0,0,1.081.986v.392l-2.248.539A6.014,6.014,0,0,0-1477.266,2434.213Zm13.969,6.5h-5.118a7.717,7.717,0,0,0-5.352-4.551l-.632-.151,1.887-.452a1.252,1.252,0,0,0,.454-.181,1.26,1.26,0,0,0,.575-1.059v-.415a5.783,5.783,0,0,0,.7.045,5.645,5.645,0,0,0,.706-.046v.423a1.258,1.258,0,0,0,.967,1.224l3.2.766a3.386,3.386,0,0,1,2.608,3.3v1.092Z" fill="#0070bf"/>
      </g>
    </g>
    <g id="Сгруппировать_59" data-name="Сгруппировать 59">
      <g id="Сгруппировать_58" data-name="Сгруппировать 58">
        <path id="Контур_39" data-name="Контур 39" d="M-1480.371,2447.328a1.267,1.267,0,0,0-.889-.367,1.264,1.264,0,0,0-.89.367,1.265,1.265,0,0,0-.369.891,1.262,1.262,0,0,0,.369.89,1.265,1.265,0,0,0,.89.369,1.268,1.268,0,0,0,.889-.369,1.27,1.27,0,0,0,.369-.89A1.273,1.273,0,0,0-1480.371,2447.328Z" fill="#0070bf"/>
      </g>
    </g>
    <g id="Сгруппировать_61" data-name="Сгруппировать 61">
      <g id="Сгруппировать_60" data-name="Сгруппировать 60">
        <path id="Контур_40" data-name="Контур 40" d="M-1481.261,2409.75a1.259,1.259,0,0,0-1.259,1.259v1.883a1.259,1.259,0,0,0,1.259,1.258,1.258,1.258,0,0,0,1.258-1.258v-1.883A1.258,1.258,0,0,0-1481.261,2409.75Z" fill="#0070bf"/>
      </g>
    </g>
    <g id="Сгруппировать_63" data-name="Сгруппировать 63">
      <g id="Сгруппировать_62" data-name="Сгруппировать 62">
        <path id="Контур_41" data-name="Контур 41" d="M-1485.9,2413.855l-1.32-1.319a1.258,1.258,0,0,0-1.78,0,1.257,1.257,0,0,0,0,1.78l1.32,1.319a1.257,1.257,0,0,0,.889.368,1.255,1.255,0,0,0,.891-.369A1.26,1.26,0,0,0-1485.9,2413.855Z" fill="#0070bf"/>
      </g>
    </g>
    <g id="Сгруппировать_65" data-name="Сгруппировать 65">
      <g id="Сгруппировать_64" data-name="Сгруппировать 64">
        <path id="Контур_42" data-name="Контур 42" d="M-1473.555,2412.568a1.259,1.259,0,0,0-1.78,0l-1.31,1.312a1.256,1.256,0,0,0,0,1.779,1.251,1.251,0,0,0,.889.369,1.253,1.253,0,0,0,.89-.369l1.31-1.312A1.258,1.258,0,0,0-1473.555,2412.568Z" fill="#0070bf"/>
      </g>
    </g>
  </g>
</svg>
