<svg xmlns="http://www.w3.org/2000/svg" width="62.926" height="64.437" viewBox="0 0 62.926 64.437">
  <g id="Сгруппировать_77" data-name="Сгруппировать 77" transform="translate(2243.426 -2411.006)">
    <g id="Сгруппировать_76" data-name="Сгруппировать 76">
      <path id="Контур_53" data-name="Контур 53" d="M-2187.161,2439.062a1.262,1.262,0,0,0-.89-.368h-20.136v-10.068h20.136a1.26,1.26,0,0,0,.89-.369l6.293-6.292a1.26,1.26,0,0,0,0-1.78l-6.293-6.293a1.259,1.259,0,0,0-.89-.369h-20.136v-1.258a1.259,1.259,0,0,0-1.258-1.259h-5.035a1.259,1.259,0,0,0-1.258,1.259v13.844h-20.137a1.257,1.257,0,0,0-.889.368l-6.293,6.293a1.258,1.258,0,0,0,0,1.78l6.293,6.293a1.261,1.261,0,0,0,.889.368h20.137v26.681H-2217a6.3,6.3,0,0,0-6.166,5.034h-3.9a1.258,1.258,0,0,0-1.258,1.258,1.259,1.259,0,0,0,1.258,1.259h30.2a1.259,1.259,0,0,0,1.258-1.259,1.258,1.258,0,0,0-1.258-1.258h-3.9a6.3,6.3,0,0,0-6.166-5.034h-1.259v-14.1h20.136a1.258,1.258,0,0,0,.89-.368l6.293-6.293a1.26,1.26,0,0,0,0-1.78Zm-21.026-23.021h19.615l5.034,5.034-5.034,5.034h-19.615Zm-5.034-2.518h2.517v54.369h-2.517Zm-22.132,25.171-5.034-5.034,5.034-5.034h19.615v10.068Zm28.425,31.715a3.782,3.782,0,0,1,3.559,2.517h-17.187a3.782,3.782,0,0,1,3.559-2.517Zm18.356-19.13h-19.615v-10.068h19.615l5.034,5.034Z" fill="#0070bf"/>
    </g>
  </g>
</svg>
