<svg xmlns="http://www.w3.org/2000/svg" width="64.212" height="64.437" viewBox="0 0 64.212 64.437">
  <g id="Сгруппировать_67" data-name="Сгруппировать 67" transform="translate(1148.505 -2409.75)">
    <path id="Контур_43" data-name="Контур 43" d="M-1116.512,2417.938a1.267,1.267,0,0,0,1.268-1.267v-5.653a1.268,1.268,0,0,0-1.268-1.268,1.268,1.268,0,0,0-1.267,1.268v5.653a1.267,1.267,0,0,0,1.267,1.267Z" fill="#0070bf"/>
    <path id="Контур_44" data-name="Контур 44" d="M-1085.53,2453.293l-2.239-2.232a4.2,4.2,0,0,0-2.989-1.234,4.217,4.217,0,0,0-2.033.517l-4.22-4.214.206-.206a4.4,4.4,0,0,0,0-6.211,4.352,4.352,0,0,0-2.207-1.193,4.406,4.406,0,0,0,.175-1.233,4.351,4.351,0,0,0-1.285-3.106,4.353,4.353,0,0,0-2.206-1.193,4.443,4.443,0,0,0,.175-1.233,4.353,4.353,0,0,0-1.287-3.107,4.362,4.362,0,0,0-2.205-1.19,4.406,4.406,0,0,0-1.11-4.344,4.4,4.4,0,0,0-3.578-1.254l-8.361-1.583c-1.275-.242-2.867-.4-3.872.515a2.331,2.331,0,0,0-.192.2,4.409,4.409,0,0,0-4.625,1.017,4.359,4.359,0,0,0-1.284,3.107,4.4,4.4,0,0,0,.175,1.233,4.353,4.353,0,0,0-2.2,1.19,4.359,4.359,0,0,0-1.288,3.1,4.439,4.439,0,0,0,.175,1.237,4.358,4.358,0,0,0-2.2,1.189,4.366,4.366,0,0,0-1.286,3.109,4.367,4.367,0,0,0,.767,2.484,4.354,4.354,0,0,0-1.688,1.051,4.4,4.4,0,0,0,0,6.215l.2.2-4.22,4.212a4.238,4.238,0,0,0-4.8.831l-2.24,2.234a4.2,4.2,0,0,0-1.236,2.989,4.2,4.2,0,0,0,1.236,2.99l2.8,2.793a1.267,1.267,0,0,0,1.792,0,1.268,1.268,0,0,0,0-1.793l-2.8-2.792a1.679,1.679,0,0,1-.492-1.2,1.681,1.681,0,0,1,.491-1.2l2.241-2.234a1.7,1.7,0,0,1,2.067-.253,1.319,1.319,0,0,0,.16.195,1.241,1.241,0,0,0,.364.253l12.849,12.83a1.256,1.256,0,0,0,.254.368,1.251,1.251,0,0,0,.357.249,1.68,1.68,0,0,1,.421,1.118,1.676,1.676,0,0,1-.492,1.2l-2.238,2.235a1.7,1.7,0,0,1-2.4,0l-2.8-2.8a1.267,1.267,0,0,0-1.792,0,1.267,1.267,0,0,0,0,1.792l2.8,2.8a4.22,4.22,0,0,0,2.987,1.23,4.226,4.226,0,0,0,2.99-1.232l2.24-2.237a4.2,4.2,0,0,0,1.235-2.99,4.2,4.2,0,0,0-.642-2.244l4.749-4.744.015-.015c.544-.562,2.059-.457,3.523-.355a18.351,18.351,0,0,0,3.334.022l5.2,5.194a4.211,4.211,0,0,0-.517,2.03,4.193,4.193,0,0,0,1.236,2.988l2.24,2.237a4.2,4.2,0,0,0,2.989,1.234,4.2,4.2,0,0,0,2.989-1.234l13.585-13.568a4.2,4.2,0,0,0,1.236-2.989,4.2,4.2,0,0,0-1.237-2.991Zm-33.636-30.525,5.5,1.04-3.291,3.29a8.012,8.012,0,0,1-1.973-1.433,5.835,5.835,0,0,1-1.865-2.881h0c-.005-.052-.006-.093-.006-.125a4.293,4.293,0,0,1,1.636.111Zm-6.425,1.033a1.87,1.87,0,0,1,2.365-.224,9.067,9.067,0,0,0,2.543,3.919,9.388,9.388,0,0,0,3.652,2.263,1.847,1.847,0,0,1,.332,1.062,1.842,1.842,0,0,1-.542,1.315,1.843,1.843,0,0,1-1.316.542,1.847,1.847,0,0,1-1.318-.543h0l-5.716-5.706a1.839,1.839,0,0,1-.541-1.313,1.841,1.841,0,0,1,.541-1.314Zm-3.312,5.531a1.844,1.844,0,0,1,1.314-.542,1.851,1.851,0,0,1,1.319.544l4.6,4.593a1.866,1.866,0,0,1,0,2.631,1.86,1.86,0,0,1-1.321.541,1.855,1.855,0,0,1-1.318-.54h0l-3.491-3.491-.017-.016-1.093-1.092a1.847,1.847,0,0,1-.543-1.316,1.839,1.839,0,0,1,.545-1.312Zm-3.318,5.53a1.846,1.846,0,0,1,1.317-.541,1.85,1.85,0,0,1,1.308.532l3.5,3.5a1.839,1.839,0,0,1,.542,1.312,1.845,1.845,0,0,1-.543,1.314,1.85,1.85,0,0,1-1.316.54,1.861,1.861,0,0,1-1.319-.54l-1.27-1.269h0l-2.221-2.218a1.846,1.846,0,0,1-.543-1.315,1.844,1.844,0,0,1,.543-1.315Zm-2.208,6.643a1.855,1.855,0,0,1,1.319-.543,1.855,1.855,0,0,1,1.319.543l1.271,1.27a1.836,1.836,0,0,1,.542,1.312,1.843,1.843,0,0,1-.545,1.315,1.845,1.845,0,0,1-1.315.541,1.845,1.845,0,0,1-1.319-.544l-.159-.158-.006-.007-.007-.006-1.1-1.094a1.863,1.863,0,0,1,0-2.629Zm25.829,14.405a1.267,1.267,0,0,0-1.792,0l-1.128,1.126c-1.071,1.071-3.013.937-4.89.806-2.039-.141-4.148-.288-5.512,1.113l-4.669,4.663-11.674-11.657,4.131-4.124a4.382,4.382,0,0,0,2.3.643,4.359,4.359,0,0,0,3.107-1.284,4.354,4.354,0,0,0,1.288-3.108v-.033h.033a4.365,4.365,0,0,0,3.106-1.28,4.353,4.353,0,0,0,1.288-3.109v-.032h.034a4.374,4.374,0,0,0,3.111-1.283,4.382,4.382,0,0,0,1.283-3.139h.034a4.364,4.364,0,0,0,3.108-1.284,4.362,4.362,0,0,0,1.284-3.108,4.373,4.373,0,0,0-.641-2.291l3.621-3.619a1.854,1.854,0,0,1,.952-.507,1.048,1.048,0,0,0,.111-.018,1.864,1.864,0,0,1,1.575.522,1.866,1.866,0,0,1,0,2.631l-1.1,1.1-.011.011-1.27,1.268a1.266,1.266,0,0,0,0,1.792,1.267,1.267,0,0,0,1.792,0l1.107-1.106h0l.167-.167a1.868,1.868,0,0,1,2.631.006,1.841,1.841,0,0,1,.542,1.313,1.839,1.839,0,0,1-.545,1.314l-1.109,1.112h0l-1.271,1.265a1.268,1.268,0,0,0,0,1.793,1.267,1.267,0,0,0,1.792,0l1.276-1.27a1.843,1.843,0,0,1,1.316-.542,1.849,1.849,0,0,1,1.319.544,1.839,1.839,0,0,1,.541,1.313,1.841,1.841,0,0,1-.543,1.314l-2.212,2.212a1.268,1.268,0,0,0,0,1.792,1.258,1.258,0,0,0,.9.371,1.265,1.265,0,0,0,.9-.371l1.084-1.084.019-.018a1.847,1.847,0,0,1,1.316-.541,1.845,1.845,0,0,1,1.317.543,1.861,1.861,0,0,1,0,2.627l-1.1,1.1h0l-1.749,1.747a1.267,1.267,0,0,0,0,1.792,1.262,1.262,0,0,0,.9.372,1.262,1.262,0,0,0,.9-.371l.856-.854,4.1,4.1-11.674,11.659-4.182-4.177a5.017,5.017,0,0,0,.832-.67l1.127-1.126a1.266,1.266,0,0,0,0-1.792Zm21.279,1.569-13.584,13.569a1.686,1.686,0,0,1-1.2.492,1.684,1.684,0,0,1-1.2-.492l-2.24-2.237a1.677,1.677,0,0,1-.492-1.2,1.676,1.676,0,0,1,.492-1.194l13.585-13.568a1.68,1.68,0,0,1,1.2-.492,1.678,1.678,0,0,1,1.2.493l2.239,2.232a1.677,1.677,0,0,1,.493,1.2A1.677,1.677,0,0,1-1087.321,2457.479Z" fill="#0070bf"/>
    <path id="Контур_45" data-name="Контур 45" d="M-1133.342,2416.87a1.266,1.266,0,0,0,.9.37,1.265,1.265,0,0,0,.9-.372,1.269,1.269,0,0,0,0-1.793l-4.619-4.609a1.267,1.267,0,0,0-1.792,0,1.266,1.266,0,0,0,0,1.792Z" fill="#0070bf"/>
    <path id="Контур_46" data-name="Контур 46" d="M-1100.577,2417.24a1.266,1.266,0,0,0,.9-.371l4.615-4.609a1.268,1.268,0,0,0,0-1.793,1.268,1.268,0,0,0-1.792,0l-4.615,4.61a1.267,1.267,0,0,0,0,1.792A1.265,1.265,0,0,0-1100.577,2417.24Z" fill="#0070bf"/>
    <path id="Контур_47" data-name="Контур 47" d="M-1140.712,2464.27a1.268,1.268,0,0,0,.016,1.793l0,0a1.261,1.261,0,0,0,.886.363,1.266,1.266,0,0,0,.905-.38,1.27,1.27,0,0,0-.017-1.794A1.268,1.268,0,0,0-1140.712,2464.27Z" fill="#0070bf"/>
    <path id="Контур_48" data-name="Контур 48" d="M-1105.5,2454.084a1.271,1.271,0,0,0,.572-.136,1.268,1.268,0,0,0,.561-1.7,1.267,1.267,0,0,0-1.7-.561l-.007,0a1.264,1.264,0,0,0-.558,1.7,1.268,1.268,0,0,0,1.134.7Z" fill="#0070bf"/>
  </g>
</svg>
