<svg xmlns="http://www.w3.org/2000/svg" width="57.73" height="58.064" viewBox="0 0 57.73 58.064">
  <g id="Сгруппировать_5" data-name="Сгруппировать 5" transform="translate(2250.501 -24.322)">
    <path id="Контур_2" data-name="Контур 2" d="M-2218.672,31.1c0,1.633-.016,3.165.022,4.695,0,.158.3.405.5.446a19.872,19.872,0,0,1,4.782,1.633,16.926,16.926,0,0,1,7.046,6.5,16.539,16.539,0,0,1,2.2,11.846A16.881,16.881,0,0,1-2213.18,68.6a15.944,15.944,0,0,1-7.835,1.912,16.85,16.85,0,0,1-15.061-8.685,18.555,18.555,0,0,1-2.144-6.142,9.074,9.074,0,0,0-1.3-2.6c-.536-.914-1.174-1.767-1.723-2.672-.665-1.1-.175-1.912,1.088-2.2a8.262,8.262,0,0,1,3.573.167,10.133,10.133,0,0,1,5.03,2.515,5.245,5.245,0,0,1,1.67,3.683,9.023,9.023,0,0,0,1.865,4.766c2.71,3.306,8.4,4.293,12.869.749a8.687,8.687,0,0,0,2.623-9.8,8.528,8.528,0,0,0-6.07-5.651c-.736,2.2-2.726,2.718-4.544,2.625a4.247,4.247,0,0,1-3.023-1.286,2.314,2.314,0,0,1-.691-1.648q.009-9.464,0-18.928c0-.342.046-.564.466-.637a27.288,27.288,0,0,1,7.826-.281,29.649,29.649,0,0,1,8.823,2.361,29.207,29.207,0,0,1,10.212,7.606,27.728,27.728,0,0,1,5.392,9.363c.533,1.578.841,3.232,1.245,4.853.106.424-.076.6-.511.594q-2.736-.017-5.471,0c-.4,0-.572-.159-.66-.554a22.169,22.169,0,0,0-10.861-14.894,21.116,21.116,0,0,0-7.391-2.62C-2218.043,31.152-2218.3,31.141-2218.672,31.1Z"/>
    <path id="Контур_3" data-name="Контур 3" d="M-2244.139,65.267c.983,0,1.967.017,2.95-.008a1.013,1.013,0,0,1,.957.514A22.013,22.013,0,0,0-2230.466,74a21.756,21.756,0,0,0,6.79,1.737,15.088,15.088,0,0,0,4.271-.021c.544-.1.757.086.744.681-.039,1.719-.035,3.44,0,5.16.01.55-.188.655-.7.71a24.5,24.5,0,0,1-6.61-.239,28.691,28.691,0,0,1-13.112-5.625,28.685,28.685,0,0,1-6.663-7.168c-.7-1.092-1.294-2.257-1.936-3.39-.225-.4-.08-.571.349-.571h3.2Z"/>
    <path id="Контур_4" data-name="Контур 4" d="M-2234.728,27.691c.016.244.042.444.042.643,0,2.07-.006,4.139.007,6.208a1.031,1.031,0,0,1-.456.925,21.994,21.994,0,0,0-7.1,9.186,28.883,28.883,0,0,0-1.3,4.318,23.8,23.8,0,0,0-.2,8c.042.422-.081.509-.433.509-1.844,0-3.689-.007-5.533,0a.527.527,0,0,1-.6-.546,27.871,27.871,0,0,1,.114-7.655,45.545,45.545,0,0,1,1.2-5.053,26.9,26.9,0,0,1,5.307-9.547,29.659,29.659,0,0,1,7.745-6.5c.3-.175.613-.32.923-.472A1,1,0,0,1-2234.728,27.691Z"/>
    <path id="Контур_5" data-name="Контур 5" d="M-2192.771,57.24c-.212,1.095-.378,2.2-.645,3.282a27.7,27.7,0,0,1-2.835,7.077,28.588,28.588,0,0,1-10.189,10.516c-1.215.733-2.533,1.294-3.79,1.958-.513.271-.611.043-.61-.407,0-2.008-.01-4.015.02-6.022a.926.926,0,0,1,.377-.672,22.837,22.837,0,0,0,7.752-7.321,21.267,21.267,0,0,0,2.842-6.32c.146-.574.232-1.165.409-1.727.063-.2.317-.473.486-.476,1.966-.027,3.933-.009,5.9,0,.036,0,.072.03.109.046Z"/>
  </g>
</svg>
