<svg xmlns="http://www.w3.org/2000/svg" width="57.73" height="58.061" viewBox="0 0 57.73 58.061">
  <g id="Сгруппировать_98" data-name="Сгруппировать 98" transform="translate(2270.926 -3705.321)">
    <path id="Контур_68" data-name="Контур 68" d="M-2213.316,3729.663c-.4-1.62-.712-3.274-1.245-4.852a27.746,27.746,0,0,0-5.391-9.363,29.221,29.221,0,0,0-10.213-7.606,29.617,29.617,0,0,0-8.823-2.361c-.037,0-.074,0-.11-.008,0,2.275-.008,4.456.023,6.629.354.035.613.047.865.088a21.112,21.112,0,0,1,7.391,2.62,22.165,22.165,0,0,1,10.861,14.894c.088.4.262.556.66.554q2.734-.014,5.471,0C-2213.391,3730.26-2213.21,3730.088-2213.316,3729.663Z" fill="#fff"/>
    <path id="Контур_69" data-name="Контур 69" d="M-2226.744,3725.38a17.547,17.547,0,0,0-2.98-3.69,16.832,16.832,0,0,0-4.066-2.816,19.88,19.88,0,0,0-4.781-1.632c-.2-.042-.5-.288-.5-.446-.038-1.53-.023-3.062-.023-4.7l.022,0c-.031-2.173-.026-4.354-.023-6.629a27.334,27.334,0,0,0-7.716.289c-.414.072-.464.29-.465.626v.011q.008,9.464,0,18.927h0a2.318,2.318,0,0,0,.691,1.648,4.247,4.247,0,0,0,3.023,1.286c1.818.092,3.808-.422,4.544-2.625a6.556,6.556,0,0,1,2.327.941,8.952,8.952,0,0,1,3.744,4.71,8.685,8.685,0,0,1-2.624,9.8c-4.469,3.545-10.159,2.558-12.869-.748a9.029,9.029,0,0,1-1.865-4.766,5.246,5.246,0,0,0-1.67-3.684,10.137,10.137,0,0,0-5.029-2.514,8.251,8.251,0,0,0-3.574-.167c-1.263.284-1.753,1.1-1.088,2.2.55.906,1.187,1.759,1.723,2.673a9.042,9.042,0,0,1,1.3,2.6,18.552,18.552,0,0,0,2.144,6.143,16.854,16.854,0,0,0,15.061,8.685,15.933,15.933,0,0,0,7.835-1.913,16.881,16.881,0,0,0,9.065-12.37A16.54,16.54,0,0,0-2226.744,3725.38Z" fill="#fff"/>
    <path id="Контур_70" data-name="Контур 70" d="M-2264.564,3746.263c.983,0,1.967.017,2.95-.008a1.013,1.013,0,0,1,.957.514,22.016,22.016,0,0,0,9.766,8.221,21.763,21.763,0,0,0,6.79,1.738,15.166,15.166,0,0,0,4.272-.021c.543-.1.756.086.743.681-.039,1.719-.035,3.44,0,5.16.011.55-.188.654-.7.71a24.509,24.509,0,0,1-6.611-.239,28.693,28.693,0,0,1-13.112-5.625,28.707,28.707,0,0,1-6.663-7.168c-.7-1.092-1.294-2.257-1.936-3.39-.225-.4-.08-.571.349-.571h3.2Z" fill="#fff"/>
    <path id="Контур_71" data-name="Контур 71" d="M-2255.153,3708.687c.017.244.042.444.042.643,0,2.069-.006,4.139.008,6.208a1.032,1.032,0,0,1-.457.925,22.005,22.005,0,0,0-7.1,9.186,29.026,29.026,0,0,0-1.3,4.317,23.828,23.828,0,0,0-.2,8c.042.423-.081.51-.433.509-1.844,0-3.689-.007-5.533,0a.528.528,0,0,1-.6-.546,27.881,27.881,0,0,1,.114-7.655,45.72,45.72,0,0,1,1.2-5.053,26.913,26.913,0,0,1,5.307-9.547,29.654,29.654,0,0,1,7.745-6.5c.3-.175.613-.321.923-.473A1.071,1.071,0,0,1-2255.153,3708.687Z" fill="#fff"/>
    <path id="Контур_72" data-name="Контур 72" d="M-2213.2,3738.236c-.212,1.095-.378,2.2-.645,3.282a27.682,27.682,0,0,1-2.835,7.077,28.6,28.6,0,0,1-10.189,10.516c-1.215.732-2.532,1.293-3.79,1.958-.512.27-.611.043-.61-.408,0-2.007-.01-4.014.021-6.021a.923.923,0,0,1,.376-.672,22.839,22.839,0,0,0,7.752-7.321,21.309,21.309,0,0,0,2.843-6.32c.145-.574.231-1.165.409-1.727.062-.2.316-.473.486-.476,1.966-.027,3.932-.009,5.9,0a.321.321,0,0,1,.109.046Z" fill="#fff"/>
  </g>
</svg>
