<svg xmlns="http://www.w3.org/2000/svg" width="36.841" height="36.841" viewBox="0 0 36.841 36.841">
  <g id="Сгруппировать_85" data-name="Сгруппировать 85" transform="translate(2219.825 -3379.963)">
    <circle id="Эллипс_7" data-name="Эллипс 7" cx="18.42" cy="18.42" r="18.42" transform="translate(-2219.825 3379.963)" fill="#483484"/>
    <g id="Сгруппировать_84" data-name="Сгруппировать 84">
      <path id="Контур_57" data-name="Контур 57" d="M-2191.66,3392.909l-.006-.024a7.036,7.036,0,0,0-4.749-4.569l-.023,0a26.373,26.373,0,0,0-9.933,0l-.024,0a7.037,7.037,0,0,0-4.749,4.569l0,.024a19.42,19.42,0,0,0,0,8.375l0,.025a7.1,7.1,0,0,0,4.487,4.5v2.221a.893.893,0,0,0,1.537.619l2.25-2.34q.734.042,1.465.043a26.518,26.518,0,0,0,4.967-.471l.023-.005a7.035,7.035,0,0,0,4.749-4.569l.006-.024A19.462,19.462,0,0,0-2191.66,3392.909Zm-1.781,7.973a5.323,5.323,0,0,1-3.352,3.21,24.684,24.684,0,0,1-5.284.427.124.124,0,0,0-.093.037l-1.643,1.687-1.748,1.794a.2.2,0,0,1-.352-.141v-3.68a.126.126,0,0,0-.1-.124h0a5.322,5.322,0,0,1-3.352-3.21,17.631,17.631,0,0,1,0-7.57,5.319,5.319,0,0,1,3.352-3.21,24.582,24.582,0,0,1,9.224,0,5.32,5.32,0,0,1,3.352,3.21A17.639,17.639,0,0,1-2193.441,3400.882Z" fill="#fff"/>
      <path id="Контур_58" data-name="Контур 58" d="M-2198.493,3402.58a6.028,6.028,0,0,1-.584-.18,13.25,13.25,0,0,1-5-3.342,12.958,12.958,0,0,1-1.913-2.927c-.245-.5-.452-1.017-.663-1.532a1.331,1.331,0,0,1,.389-1.309,3.07,3.07,0,0,1,1.03-.774.662.662,0,0,1,.827.2,10.68,10.68,0,0,1,1.279,1.791.851.851,0,0,1-.239,1.154c-.1.066-.185.143-.275.217a.943.943,0,0,0-.208.219.6.6,0,0,0-.04.527,4.77,4.77,0,0,0,2.678,2.966,1.371,1.371,0,0,0,.687.166c.419-.049.555-.509.849-.749a.8.8,0,0,1,.964-.043c.31.2.61.407.908.619a10.389,10.389,0,0,1,.854.651.677.677,0,0,1,.2.839,2.83,2.83,0,0,1-1.219,1.343,2.964,2.964,0,0,1-.527.168C-2198.7,3402.518-2198.314,3402.525-2198.493,3402.58Z" fill="#fff"/>
      <path id="Контур_59" data-name="Контур 59" d="M-2201.4,3391.866a5.015,5.015,0,0,1,4.931,4.148c.074.416.1.841.133,1.263a.3.3,0,0,1-.278.349c-.2,0-.287-.163-.3-.341-.025-.351-.043-.7-.091-1.052a4.412,4.412,0,0,0-3.553-3.687c-.275-.049-.557-.062-.836-.092-.176-.018-.407-.029-.446-.248a.3.3,0,0,1,.3-.34c.048,0,.095,0,.143,0C-2198.931,3391.935-2201.448,3391.866-2201.4,3391.866Z" fill="#fff"/>
      <path id="Контур_60" data-name="Контур 60" d="M-2197.648,3396.73a1.138,1.138,0,0,1-.024.171.28.28,0,0,1-.528.029.73.73,0,0,1-.03-.239,2.991,2.991,0,0,0-.378-1.5,2.8,2.8,0,0,0-1.171-1.1,3.35,3.35,0,0,0-.933-.287c-.141-.023-.283-.037-.424-.057a.269.269,0,0,1-.255-.3.266.266,0,0,1,.3-.262,3.878,3.878,0,0,1,1.617.422,3.268,3.268,0,0,1,1.78,2.541c.008.052.02.1.024.156.01.128.016.256.026.426C-2197.652,3396.76-2197.658,3396.56-2197.648,3396.73Z" fill="#fff"/>
      <path id="Контур_61" data-name="Контур 61" d="M-2199.184,3396.67a.305.305,0,0,1-.338-.3,3.246,3.246,0,0,0-.058-.394,1.111,1.111,0,0,0-.409-.643,1.075,1.075,0,0,0-.334-.161c-.151-.044-.309-.032-.46-.069a.282.282,0,0,1-.229-.327.3.3,0,0,1,.313-.238,1.7,1.7,0,0,1,1.739,1.69.774.774,0,0,1,0,.24.247.247,0,0,1-.221.2C-2199.39,3396.673-2199.09,3396.663-2199.184,3396.67Z" fill="#fff"/>
    </g>
  </g>
</svg>
