<svg xmlns="http://www.w3.org/2000/svg" width="36.841" height="36.841" viewBox="0 0 36.841 36.841">
  <g id="Сгруппировать_87" data-name="Сгруппировать 87" transform="translate(2168.725 -3379.963)">
    <circle id="Эллипс_8" data-name="Эллипс 8" cx="18.42" cy="18.42" r="18.42" transform="translate(-2168.725 3379.963)" fill="#72aa29"/>
    <g id="Сгруппировать_86" data-name="Сгруппировать 86">
      <path id="Контур_62" data-name="Контур 62" d="M-2150.82,3387.766a10.557,10.557,0,0,0-10.028,10.564,10.5,10.5,0,0,0,1.147,4.756l-1.119,5.433a.41.41,0,0,0,.5.482l5.324-1.261a10.5,10.5,0,0,0,4.53,1.1,10.564,10.564,0,0,0,10.7-10.206,10.544,10.544,0,0,0-11.054-10.868Zm6.353,16.369a8.2,8.2,0,0,1-5.838,2.418,8.171,8.171,0,0,1-3.674-.861l-.741-.37-3.265.774.687-3.336-.365-.715a8.169,8.169,0,0,1-.9-3.748,8.2,8.2,0,0,1,2.418-5.838,8.271,8.271,0,0,1,5.838-2.418,8.2,8.2,0,0,1,5.837,2.418,8.205,8.205,0,0,1,2.418,5.838,8.271,8.271,0,0,1-2.418,5.838Z" fill="#fff"/>
      <path id="Контур_63" data-name="Контур 63" d="M-2145.188,3400.584l-2.042-.587a.761.761,0,0,0-.753.2l-.5.509a.743.743,0,0,1-.808.17,10.9,10.9,0,0,1-3.518-3.1.744.744,0,0,1,.059-.825l.436-.564a.76.76,0,0,0,.094-.773l-.859-1.944a.761.761,0,0,0-1.189-.272,3.436,3.436,0,0,0-1.329,2.026c-.145,1.431.469,3.235,2.789,5.4,2.681,2.5,4.828,2.833,6.226,2.494a3.431,3.431,0,0,0,1.826-1.592.761.761,0,0,0-.432-1.141Z" fill="#fff"/>
    </g>
  </g>
</svg>
